<svg xmlns="http://www.w3.org/2000/svg" width="31.658" height="31.655" viewBox="0 0 31.658 31.655">
  <path id="custodian_17640428" d="M14.29,37.117l.134.322h0a1.1,1.1,0,0,1,0,.861v0a1.1,1.1,0,0,1-.608.609h0l-1.587.658a1.128,1.128,0,0,1-1.471-.607q-1.343-3.227-2.687-6.453a1.125,1.125,0,0,1,.605-1.475l1.589-.659a1.129,1.129,0,0,1,1.471.606h0l.108.259q1.127-.533,2.248-1.078a4.935,4.935,0,0,1,2.894-.733,5.071,5.071,0,0,1,2.2.975l2.917.782a1.849,1.849,0,0,1,1.133.881l4.037-1.184c1.819-.534,2.823-.127,3.265.471a1.78,1.78,0,0,1,.268,1.45,2.4,2.4,0,0,1-1.418,1.7l-6.2,2.388c-1.057.407-2.47.968-3.6.639l-3.3-.958h0a1.437,1.437,0,0,0-1.069.091Zm-.7.665-2.687-6.454a.23.23,0,0,0-.3-.124l-1.588.659a.223.223,0,0,0-.124.125.215.215,0,0,0,0,.173h0q1.343,3.228,2.688,6.456h0a.228.228,0,0,0,.3.123l1.586-.658h0a.228.228,0,0,0,.124-.3Zm.35-1.495.878-.427a2.3,2.3,0,0,1,1.713-.146l3.3.958a2.791,2.791,0,0,0,1.449-.063,14.413,14.413,0,0,0,1.582-.552l6.2-2.388a1.48,1.48,0,0,0,.864-1.056.889.889,0,0,0-.112-.726.962.962,0,0,0-.659-.336,3.883,3.883,0,0,0-1.632.193l-4.049,1.188a1.836,1.836,0,0,1-.062.525,1.858,1.858,0,0,1-2.271,1.31L17.165,33.7a.449.449,0,0,1,.232-.867l3.98,1.066h0a.956.956,0,1,0,.494-1.847l-2.994-.8a.448.448,0,0,1-.144-.068,4.314,4.314,0,0,0-1.869-.864,4.106,4.106,0,0,0-2.379.65q-1.145.56-2.3,1.1l1.756,4.217ZM35.77,16.416q-1.127.533-2.248,1.078a4.935,4.935,0,0,1-2.894.733,5.071,5.071,0,0,1-2.2-.975l-2.917-.782a1.849,1.849,0,0,1-1.133-.881l-4.037,1.184c-1.819.534-2.823.127-3.265-.471a1.78,1.78,0,0,1-.268-1.45,2.4,2.4,0,0,1,1.418-1.7l6.2-2.388c1.057-.407,2.47-.968,3.6-.639l3.3.958h0A1.436,1.436,0,0,0,32.4,10.99l.926-.45-.134-.322h0a1.1,1.1,0,0,1,0-.861v0a1.1,1.1,0,0,1,.608-.609h0l1.587-.658a1.128,1.128,0,0,1,1.471.607q1.343,3.227,2.687,6.453a1.125,1.125,0,0,1-.605,1.475l-1.589.659a1.129,1.129,0,0,1-1.471-.606h0l-.108-.259Zm-2.1-5.046-.878.427a2.3,2.3,0,0,1-1.713.146l-3.3-.958a2.791,2.791,0,0,0-1.449.063,14.412,14.412,0,0,0-1.582.552l-6.2,2.388a1.48,1.48,0,0,0-.864,1.056.889.889,0,0,0,.112.726.962.962,0,0,0,.659.336,3.883,3.883,0,0,0,1.632-.193l4.049-1.188A1.836,1.836,0,0,1,24.2,14.2a1.858,1.858,0,0,1,2.271-1.31l3.98,1.066a.449.449,0,0,1-.232.867l-3.98-1.066h0a.956.956,0,1,0-.494,1.847l2.994.8a.448.448,0,0,1,.144.068,4.314,4.314,0,0,0,1.869.864,4.106,4.106,0,0,0,2.379-.65q1.145-.56,2.3-1.1L33.669,11.37Zm.35-1.495,2.687,6.454a.23.23,0,0,0,.3.124l1.588-.659a.223.223,0,0,0,.124-.125.215.215,0,0,0,0-.173h0q-1.343-3.228-2.688-6.456h0a.228.228,0,0,0-.3-.123l-1.586.658h0a.228.228,0,0,0-.124.3ZM16.5,25.562A5.212,5.212,0,1,1,17.87,19.23a7.511,7.511,0,0,1,13.277,3.01,5.212,5.212,0,1,1-1.455,6.253A7.511,7.511,0,0,1,16.5,25.562Zm.774-5.438a4.317,4.317,0,1,0-.946,4.374q-.028-.317-.029-.641c0-.009,0-.019,0-.028A7.475,7.475,0,0,1,17.273,20.124ZM31.3,23.317q.017.254.017.512A7.473,7.473,0,0,1,30.3,27.6a4.317,4.317,0,1,0,.995-4.279Zm-14.1.512h0A6.584,6.584,0,0,0,18.7,28.034a5.877,5.877,0,0,1,10.2,0,6.612,6.612,0,1,0-11.715-4.205ZM20.6,29.612a6.617,6.617,0,0,0,7.658-.895,4.981,4.981,0,0,0-8.9,0,6.629,6.629,0,0,0,1.245.895Zm.25-8.043a2.957,2.957,0,1,1,2.956,2.956,2.957,2.957,0,0,1-2.956-2.956Zm.9,0a2.059,2.059,0,1,0,2.059-2.06,2.059,2.059,0,0,0-2.059,2.06Zm12.217,2.266-.006-.245a.449.449,0,0,1,.9-.022l.007.278a2.356,2.356,0,0,1,.456.181,1.418,1.418,0,0,1,.517.435.449.449,0,1,1-.75.493.507.507,0,0,0-.187-.134,1.169,1.169,0,0,0-.478-.147.608.608,0,1,0,0,1.2,1.562,1.562,0,0,1,1.62,1.495A1.521,1.521,0,0,1,34.878,28.8l.005.207a.449.449,0,1,1-.9.022l-.005-.217a1.867,1.867,0,0,1-.848-.523.449.449,0,1,1,.615-.653.891.891,0,0,0,.673.328.608.608,0,1,0,0-1.2A1.562,1.562,0,0,1,32.8,25.27a1.521,1.521,0,0,1,1.164-1.435ZM12.736,19.071l-.006-.245a.449.449,0,0,1,.9-.022l.007.278a2.356,2.356,0,0,1,.456.181,1.418,1.418,0,0,1,.517.435.449.449,0,1,1-.75.493.507.507,0,0,0-.187-.134,1.169,1.169,0,0,0-.478-.147.608.608,0,1,0,0,1.2,1.562,1.562,0,0,1,1.62,1.495,1.521,1.521,0,0,1-1.163,1.434l.005.207a.449.449,0,1,1-.9.022l-.005-.217a1.867,1.867,0,0,1-.848-.523.449.449,0,0,1,.615-.653.891.891,0,0,0,.673.328.608.608,0,1,0,0-1.2,1.562,1.562,0,0,1-1.62-1.495,1.521,1.521,0,0,1,1.164-1.435Z" transform="translate(-7.978 -8.001)" fill-rule="evenodd"/>
</svg>
