<svg xmlns="http://www.w3.org/2000/svg" xmlns:xlink="http://www.w3.org/1999/xlink" width="106" height="106" viewBox="0 0 106 106">
  <defs>
    <filter id="Trazado_982547" x="0" y="0" width="106" height="106" filterUnits="userSpaceOnUse">
      <feOffset dy="3" input="SourceAlpha"/>
      <feGaussianBlur stdDeviation="3" result="blur"/>
      <feFlood flood-opacity="0.161"/>
      <feComposite operator="in" in2="blur"/>
      <feComposite in="SourceGraphic"/>
    </filter>
  </defs>
  <g id="Grupo_1174701" data-name="Grupo 1174701" transform="translate(-171 -10181)">
    <g id="Grupo_1174476" data-name="Grupo 1174476" transform="translate(0 5417)">
      <g id="Grupo_1173706" data-name="Grupo 1173706" transform="translate(0 520)">
        <g id="Grupo_1173435" data-name="Grupo 1173435" transform="translate(0 533)">
          <g id="Grupo_1172017" data-name="Grupo 1172017" transform="translate(0 2654)">
            <g id="Grupo_1167337" data-name="Grupo 1167337" transform="translate(180 1063)">
              <g id="Grupo_1166720" data-name="Grupo 1166720" transform="translate(0)">
                <g id="Grupo_1164305" data-name="Grupo 1164305">
                  <g id="Grupo_1163948" data-name="Grupo 1163948">
                    <g id="Grupo_1158168" data-name="Grupo 1158168">
                      <g id="Grupo_1152576" data-name="Grupo 1152576">
                        <g id="Grupo_1148633" data-name="Grupo 1148633">
                          <g id="Grupo_1148525" data-name="Grupo 1148525">
                            <g transform="matrix(1, 0, 0, 1, -9, -6)" filter="url(#Trazado_982547)">
                              <g id="Trazado_982547-2" data-name="Trazado 982547" transform="translate(9 6)" fill="#e9f9fd">
                                <path d="M 44 86.5 C 38.26187515258789 86.5 32.69618606567383 85.37651062011719 27.45755004882812 83.16075897216797 C 22.3968505859375 81.020263671875 17.85157585144043 77.95565032958984 13.94796276092529 74.05204010009766 C 10.04434967041016 70.1484375 6.979737281799316 65.6031494140625 4.839250087738037 60.54246139526367 C 2.62348747253418 55.30381393432617 1.5 49.73812484741211 1.5 44 C 1.5 38.26187515258789 2.62348747253418 32.69618606567383 4.839250087738037 27.45755004882812 C 6.979737281799316 22.3968505859375 10.04434967041016 17.85157585144043 13.94796276092529 13.94796276092529 C 17.85157585144043 10.04434967041016 22.3968505859375 6.979737281799316 27.45755004882812 4.839250087738037 C 32.69618606567383 2.62348747253418 38.26187515258789 1.5 44 1.5 C 49.73812484741211 1.5 55.30381393432617 2.62348747253418 60.54246139526367 4.839250087738037 C 65.6031494140625 6.979737281799316 70.1484375 10.04434967041016 74.05204010009766 13.94796276092529 C 77.95565032958984 17.85157585144043 81.020263671875 22.3968505859375 83.16075897216797 27.45755004882812 C 85.37651062011719 32.69618606567383 86.5 38.26187515258789 86.5 44 C 86.5 49.73812484741211 85.37651062011719 55.30381393432617 83.16075897216797 60.54246139526367 C 81.020263671875 65.6031494140625 77.95565032958984 70.1484375 74.05204010009766 74.05204010009766 C 70.1484375 77.95565032958984 65.6031494140625 81.020263671875 60.54246139526367 83.16075897216797 C 55.30381393432617 85.37651062011719 49.73812484741211 86.5 44 86.5 Z" stroke="none"/>
                                <path d="M 44 3 C 38.46371459960938 3 33.09462738037109 4.083610534667969 28.0418701171875 6.220756530761719 C 23.15997314453125 8.285614013671875 18.77495574951172 11.24228668212891 15.00862884521484 15.00862884521484 C 11.24228668212891 18.77495574951172 8.285614013671875 23.15997314453125 6.220756530761719 28.0418701171875 C 4.083610534667969 33.09462738037109 3 38.46371459960938 3 44 C 3 49.53628540039062 4.083610534667969 54.9053840637207 6.220756530761719 59.9581298828125 C 8.285614013671875 64.84002685546875 11.24228668212891 69.22504425048828 15.00862884521484 72.99138641357422 C 18.77495574951172 76.75771331787109 23.15997314453125 79.71438598632812 28.0418701171875 81.77925872802734 C 33.09462738037109 83.9163818359375 38.46371459960938 85 44 85 C 49.53628540039062 85 54.9053840637207 83.9163818359375 59.95814514160156 81.77925872802734 C 64.84002685546875 79.71438598632812 69.22504425048828 76.75771331787109 72.99138641357422 72.99138641357422 C 76.75771331787109 69.22504425048828 79.71438598632812 64.84002685546875 81.77925872802734 59.95814514160156 C 83.9163818359375 54.9053840637207 85 49.53628540039062 85 44 C 85 38.46371459960938 83.9163818359375 33.09462738037109 81.77925872802734 28.0418701171875 C 79.71438598632812 23.15997314453125 76.75771331787109 18.77495574951172 72.99138641357422 15.00862884521484 C 69.22504425048828 11.24228668212891 64.84002685546875 8.285614013671875 59.9581298828125 6.220756530761719 C 54.9053840637207 4.083610534667969 49.53628540039062 3 44 3 M 44 0 C 68.30054473876953 0 88 19.69947052001953 88 44 C 88 68.30054473876953 68.30054473876953 88 44 88 C 19.69947052001953 88 0 68.30054473876953 0 44 C 0 19.69947052001953 19.69947052001953 0 44 0 Z" stroke="none" fill="#1d7083"/>
                              </g>
                            </g>
                          </g>
                        </g>
                      </g>
                    </g>
                  </g>
                </g>
              </g>
            </g>
          </g>
        </g>
      </g>
    </g>
    <g id="productivity_3315581" transform="translate(176.803 10201.093)">
      <g id="Grupo_1174699" data-name="Grupo 1174699" transform="translate(20.96 0.862)">
        <path id="Trazado_1034044" data-name="Trazado 1034044" d="M303.565,50.862V71.589a3.664,3.664,0,0,1-3.664,3.663H287.633a3.664,3.664,0,0,1-3.663-3.663V50.862l9.959-.529Z" transform="translate(-254.52 -45.413)" fill="#ddeafb"/>
        <path id="Trazado_1034045" data-name="Trazado 1034045" d="M406.842,48.641V69.367a3.664,3.664,0,0,1-3.664,3.663H400.65a3.664,3.664,0,0,0,3.664-3.663V48.641l1.177-.818Z" transform="translate(-357.797 -43.191)" fill="#cbe2ff"/>
        <path id="Trazado_1034046" data-name="Trazado 1034046" d="M303.565,11.163V12.95H283.97V11.163A3.664,3.664,0,0,1,287.633,7.5H299.9A3.664,3.664,0,0,1,303.565,11.163Z" transform="translate(-254.52 -7.5)" fill="#528fd8"/>
        <g id="Grupo_1174698" data-name="Grupo 1174698" transform="translate(32.915 0)">
          <path id="Trazado_1034047" data-name="Trazado 1034047" d="M406.842,11.163V12.95h-2.527V11.163A3.664,3.664,0,0,0,400.65,7.5h2.527A3.664,3.664,0,0,1,406.842,11.163Z" transform="translate(-390.712 -7.5)" fill="#0473ce"/>
          <path id="Trazado_1034048" data-name="Trazado 1034048" d="M314.133,87.362h3.406v3.406h-3.406Z" transform="translate(-314.133 -78.188)" fill="#0473ce"/>
          <path id="Trazado_1034049" data-name="Trazado 1034049" d="M314.133,149.438h3.406v3.406h-3.406Z" transform="translate(-314.133 -133.133)" fill="#0473ce"/>
        </g>
        <path id="Trazado_1034050" data-name="Trazado 1034050" d="M104.351,9.4v8.512L102.3,21.264,99,23.551H90.2a1.9,1.9,0,0,1-1.9-1.9V9.4a1.9,1.9,0,0,1,1.9-1.9h12.259A1.9,1.9,0,0,1,104.351,9.4Z" transform="translate(-81.327 -7.5)" fill="#fff9df"/>
        <path id="Trazado_1034051" data-name="Trazado 1034051" d="M189.6,9.4v8.512l-2.055,3.356-1.037-.1V9.4a1.9,1.9,0,0,0-1.9-1.9H187.7a1.9,1.9,0,0,1,1.9,1.9Z" transform="translate(-166.574 -7.5)" fill="#fff0ad"/>
        <path id="Trazado_1034052" data-name="Trazado 1034052" d="M186.792,98.11v3.746a1.9,1.9,0,0,1-1.9,1.9H181.44l2.26-2.382Z" transform="translate(-163.768 -87.701)" fill="#ffc344"/>
        <path id="Trazado_1034053" data-name="Trazado 1034053" d="M46.464,218.214a3.081,3.081,0,0,0-.31,1.349v2.516l-6.847.819-6.847-.819v-4.73a5.3,5.3,0,0,0-1.009-3.112L29.906,212.1A12.118,12.118,0,0,1,27.6,204.99V194.022a2.32,2.32,0,0,1,.889-1.818,2.175,2.175,0,0,1,1.38-.466,2.226,2.226,0,0,1,2.183,2.226l1.16,10.325a5.216,5.216,0,0,0,4.52,4.589,3.007,3.007,0,0,1-.534-1.712v-5.943a1.891,1.891,0,0,1,.476-1.256,1.778,1.778,0,0,1,1.234-.607,1.819,1.819,0,0,1,1.9,1.531l.563,3.57a3.377,3.377,0,0,0,.948,1.861l2.639,2.637c.074.075.146.149.217.225a8.064,8.064,0,0,1,1.288,9.029Z" transform="translate(-27.6 -170.573)" fill="#ffcebf"/>
        <path id="Trazado_1034054" data-name="Trazado 1034054" d="M44.583,208.877c-4.342,0-6.947-2.173-7.22-4.589L36.2,193.964a2.221,2.221,0,0,0-.863-1.76,2.175,2.175,0,0,1,1.38-.466,2.226,2.226,0,0,1,2.183,2.226l1.16,10.325A5.216,5.216,0,0,0,44.583,208.877Z" transform="translate(-34.451 -170.573)" fill="#ffb09e"/>
        <path id="Trazado_1034055" data-name="Trazado 1034055" d="M124.081,276.929a3.081,3.081,0,0,0-.31,1.349v2.516l-1.326.589-1.374-.589v-2.516a3.081,3.081,0,0,1,.31-1.349,8.064,8.064,0,0,0-1.288-9.029c-.071-.076-.144-.15-.217-.225l-2.639-2.637a3.377,3.377,0,0,1-.948-1.861l-.563-3.57a1.823,1.823,0,0,0-.438-.925,1.777,1.777,0,0,1,1.234-.607,1.819,1.819,0,0,1,1.9,1.531l.563,3.57a3.377,3.377,0,0,0,.948,1.861l2.639,2.637c.074.075.146.149.217.225A8.064,8.064,0,0,1,124.081,276.929Z" transform="translate(-105.217 -229.288)" fill="#ffb09e"/>
        <path id="Trazado_1034056" data-name="Trazado 1034056" d="M332.641,194.022V204.99a12.118,12.118,0,0,1-2.306,7.112l-1.546,2.134a5.3,5.3,0,0,0-1.009,3.112v4.73l-6.847.819-6.847-.819v-2.516a3.081,3.081,0,0,0-.31-1.349,8.064,8.064,0,0,1,1.288-9.029c.071-.076.144-.15.217-.225l2.639-2.637a3.377,3.377,0,0,0,.948-1.861l.563-3.57a1.819,1.819,0,0,1,1.9-1.531,1.849,1.849,0,0,1,1.709,1.862v5.943a3.007,3.007,0,0,1-.534,1.712,5.216,5.216,0,0,0,4.52-4.589l1.16-10.325a2.228,2.228,0,0,1,2.183-2.226A2.274,2.274,0,0,1,332.641,194.022Z" transform="translate(-280.167 -170.573)" fill="#ffcebf"/>
        <path id="Trazado_1034057" data-name="Trazado 1034057" d="M426.433,194.022V204.99a12.118,12.118,0,0,1-2.306,7.112l-1.546,2.134a5.3,5.3,0,0,0-1.009,3.112v4.73l-1.268.819-1.395-.819v-4.73a5.3,5.3,0,0,1,1.009-3.112l1.546-2.134a12.118,12.118,0,0,0,2.305-7.112V194.022a2.319,2.319,0,0,0-.908-1.832,2.205,2.205,0,0,1,1.3-.453,2.274,2.274,0,0,1,2.269,2.285Z" transform="translate(-373.959 -170.573)" fill="#ffb09e"/>
        <path id="Trazado_1034058" data-name="Trazado 1034058" d="M57.45,455.87H74.007v5.586H57.45Z" transform="translate(-54.021 -404.365)" fill="#ddeafb"/>
        <path id="Trazado_1034059" data-name="Trazado 1034059" d="M177.58,455.87h2.757v5.586H177.58Z" transform="translate(-160.352 -404.365)" fill="#cbe2ff"/>
        <path id="Trazado_1034060" data-name="Trazado 1034060" d="M310.42,455.87h16.557v5.586H310.42Z" transform="translate(-277.932 -404.365)" fill="#ddeafb"/>
        <path id="Trazado_1034061" data-name="Trazado 1034061" d="M431.05,455.87h2.7v5.586h-2.7Z" transform="translate(-384.705 -404.365)" fill="#cbe2ff"/>
        <path id="Trazado_1034062" data-name="Trazado 1034062" d="M198.627,209.7v-1.193a1.078,1.078,0,0,0-.794-1.039l-.949-.259a1.076,1.076,0,0,1-.71-.626l0-.01a1.076,1.076,0,0,1,.059-.947l.488-.854a1.078,1.078,0,0,0-.174-1.3l-.844-.844a1.078,1.078,0,0,0-1.3-.174l-.854.488a1.076,1.076,0,0,1-.948.059l-.01,0a1.076,1.076,0,0,1-.626-.71l-.259-.949a1.077,1.077,0,0,0-1.039-.794h-1.193a1.078,1.078,0,0,0-1.039.794l-.259.949a1.076,1.076,0,0,1-.626.71l-.01,0a1.076,1.076,0,0,1-.947-.059l-.854-.488a1.078,1.078,0,0,0-1.3.174l-.844.844a1.078,1.078,0,0,0-.174,1.3l.488.854a1.077,1.077,0,0,1,.059.947l0,.01a1.076,1.076,0,0,1-.71.626l-.949.259a1.077,1.077,0,0,0-.794,1.039V209.7a1.078,1.078,0,0,0,.794,1.039l.949.259a1.076,1.076,0,0,1,.71.626l0,.01a1.076,1.076,0,0,1-.059.947l-.488.854a1.077,1.077,0,0,0,.174,1.3l.844.844a1.078,1.078,0,0,0,1.3.174l.854-.488a1.077,1.077,0,0,1,.947-.059l.01,0a1.076,1.076,0,0,1,.626.71l.259.949a1.077,1.077,0,0,0,1.039.794h1.193a1.078,1.078,0,0,0,1.039-.794l.259-.949a1.076,1.076,0,0,1,.626-.71l.01,0a1.076,1.076,0,0,1,.947.059l.854.488a1.078,1.078,0,0,0,1.3-.174l.844-.844a1.078,1.078,0,0,0,.174-1.3l-.488-.854a1.077,1.077,0,0,1-.059-.948l0-.01a1.076,1.076,0,0,1,.71-.626l.949-.259A1.077,1.077,0,0,0,198.627,209.7Z" transform="translate(-163.834 -178.373)" fill="#cbe2ff"/>
        <path id="Trazado_1034063" data-name="Trazado 1034063" d="M234.456,250.283a3.214,3.214,0,1,1-3.213-3.213A3.212,3.212,0,0,1,234.456,250.283Z" transform="translate(-205.006 -219.55)" fill="#5a5a5a"/>
        <path id="Trazado_1034064" data-name="Trazado 1034064" d="M249.477,250.283A3.214,3.214,0,0,1,245,253.236a3.213,3.213,0,0,0,0-5.908,3.214,3.214,0,0,1,4.477,2.955Z" transform="translate(-220.027 -219.55)" fill="#444"/>
      </g>
      <g id="Grupo_1174700" data-name="Grupo 1174700" transform="translate(20.098 0)">
        <path id="Trazado_1034065" data-name="Trazado 1034065" d="M40.945,215.424h-.569A6.391,6.391,0,0,1,40.6,212.8a9.051,9.051,0,0,0,.6-6.34.862.862,0,0,0-1.662.454,7.329,7.329,0,0,1-.489,5.134,7.589,7.589,0,0,0-.4,3.379H26.682v-3.868c0-2.319-1.439-3.985-2.719-5.753a11.189,11.189,0,0,1-2.142-6.606V188.23c0-1.868,2.532-1.752,2.734.037l1.16,10.325a6.056,6.056,0,0,0,4.9,5.288c.068.081,2.244,2.265,2.244,2.265a.861.861,0,1,0,1.219-1.218s-2.2-2.222-2.275-2.327a2.179,2.179,0,0,1-.384-1.227v-5.944a.959.959,0,0,1,1.9-.2l.563,3.571a4.217,4.217,0,0,0,1.19,2.336l2.638,2.638a.862.862,0,0,0,1.218-1.218l-2.638-2.638a2.5,2.5,0,0,1-.707-1.386l-.563-3.572a2.679,2.679,0,0,0-5.324.467v5.944h0q0,.2.019.389a4.342,4.342,0,0,1-2.288-3.363l-1.155-10.28c-.067-3.972-6.174-3.868-6.174.111V199.2a12.9,12.9,0,0,0,2.469,7.617c1.036,1.43,2.391,2.865,2.391,4.742v3.868h-.569a.861.861,0,0,0-.862.862v5.586a.861.861,0,0,0,.862.862H40.945a.861.861,0,0,0,.862-.862v-5.587a.861.861,0,0,0-.861-.862Zm-.862,5.587H25.251v-3.863H40.083Z" transform="translate(-20.098 -163.919)"/>
        <path id="Trazado_1034066" data-name="Trazado 1034066" d="M209.571,22.048a3.063,3.063,0,0,0-2.476-.864V4.525A4.53,4.53,0,0,0,202.57,0H190.3a4.53,4.53,0,0,0-4.525,4.525v7.558a.862.862,0,1,0,1.723,0V7.173h17.872V21.965A3.087,3.087,0,0,0,204.35,24.2l-.6,5.381a8.489,8.489,0,0,1-3.381.258,2.707,2.707,0,0,0-4.244,0h-3.663a1.937,1.937,0,0,0-1.042-.712l-.949-.259a.228.228,0,0,1-.135-.325l.488-.854a1.943,1.943,0,0,0-.313-2.333l-.843-.844a1.943,1.943,0,0,0-2.164-.4V16.2a.862.862,0,1,0-1.723,0V23.29a1.944,1.944,0,0,0-1.754-1.115h-1.193a1.944,1.944,0,0,0-1.871,1.428l-.259.949a.228.228,0,0,1-.325.135l-.854-.488a1.944,1.944,0,0,0-2.333.313l-.844.844a1.943,1.943,0,0,0-.313,2.333l.488.854a.228.228,0,0,1-.135.325l-.949.259A1.944,1.944,0,0,0,174.007,31v1.193a1.944,1.944,0,0,0,1.428,1.871l.948.259a.228.228,0,0,1,.135.325l-.488.854a1.943,1.943,0,0,0,.313,2.333l.844.844a1.943,1.943,0,0,0,2.333.313l.854-.488a.228.228,0,0,1,.325.135l.259.949a1.944,1.944,0,0,0,1.871,1.428h1.193a1.944,1.944,0,0,0,1.871-1.428l.259-.949a.228.228,0,0,1,.325-.135l.854.487a1.943,1.943,0,0,0,2.333-.313l.844-.844a1.943,1.943,0,0,0,.313-2.333l-.488-.854a.228.228,0,0,1,.135-.325l.949-.259a1.944,1.944,0,0,0,1.428-1.871v-.628h2.676l-.481,3.052c-.269,1.693-2.481,3.094-3.581,4.27a8.963,8.963,0,0,0-1.434,10,8.411,8.411,0,0,1,.224,2.626h-.569a.861.861,0,0,0-.862.862v5.586a.861.861,0,0,0,.862.862h3.283a.862.862,0,1,0,0-1.723h-2.421V53.228h14.832v3.863h-8.449a.862.862,0,0,0,0,1.723h9.31a.861.861,0,0,0,.862-.862V52.366a.861.861,0,0,0-.862-.862h-.569V47.637c0-1.869,1.357-3.313,2.391-4.742a12.9,12.9,0,0,0,2.469-7.617V24.311a3.192,3.192,0,0,0-.953-2.263ZM187.5,5.449V4.525a2.805,2.805,0,0,1,2.8-2.8H202.57a2.8,2.8,0,0,1,2.8,2.8v.925Zm16.035,26.009L203.2,34.48a4.343,4.343,0,0,1-2.288,3.364q.019-.193.019-.389h0V31.562a12.572,12.572,0,0,0,2.609-.1Zm-12.414.732a.216.216,0,0,1-.159.208l-.949.259a1.966,1.966,0,0,0-1.177,2.842l.488.854a.216.216,0,0,1-.035.26l-.844.844a.216.216,0,0,1-.26.035L187.332,37a1.978,1.978,0,0,0-2.842,1.177l-.259.949a.217.217,0,0,1-.208.159h-1.193a.216.216,0,0,1-.208-.159l-.259-.949A1.973,1.973,0,0,0,179.52,37l-.854.488a.216.216,0,0,1-.26-.035l-.844-.844a.216.216,0,0,1-.035-.26l.488-.854a1.977,1.977,0,0,0-1.177-2.842l-.949-.259a.217.217,0,0,1-.159-.208V31a.216.216,0,0,1,.159-.208l.949-.259a1.968,1.968,0,0,0,1.177-2.842l-.488-.854a.216.216,0,0,1,.035-.26l.844-.844a.217.217,0,0,1,.26-.035l.854.488a1.966,1.966,0,0,0,2.842-1.177l.259-.949a.217.217,0,0,1,.208-.159h1.193a.216.216,0,0,1,.208.159l.259.949a2,2,0,0,0,2.842,1.177l.854-.488a.216.216,0,0,1,.26.035l.844.844a.216.216,0,0,1,.035.26l-.488.854a1.969,1.969,0,0,0,1.177,2.842l.949.259a.217.217,0,0,1,.159.208v1.193Zm17.68,3.088a11.189,11.189,0,0,1-2.142,6.606c-1.277,1.764-2.719,3.44-2.719,5.752V51.5H191.97a7.542,7.542,0,0,0-.4-3.379,7.23,7.23,0,0,1,1.142-8.064c1.415-1.51,3.68-3,4.025-5.178l.562-3.568a.959.959,0,0,1,1.9.194v5.944a2.175,2.175,0,0,1-.631,1.524l-2.029,2.03a.861.861,0,1,0,1.219,1.218s2.176-2.184,2.244-2.265a6.056,6.056,0,0,0,4.9-5.289l.5-4.442c0-.01,0-.019,0-.028l.658-5.854c.2-1.8,2.734-1.929,2.734-.037V35.278Z" transform="translate(-156.327 0)"/>
        <path id="Trazado_1034067" data-name="Trazado 1034067" d="M224.607,239.57a4.074,4.074,0,1,0,4.074,4.074A4.079,4.079,0,0,0,224.607,239.57Zm0,6.425a2.351,2.351,0,1,1,2.351-2.351A2.354,2.354,0,0,1,224.607,246Z" transform="translate(-197.509 -212.05)"/>
        <path id="Trazado_1034068" data-name="Trazado 1034068" d="M307.495,84.991H310.9a.861.861,0,0,0,.862-.862V80.723a.861.861,0,0,0-.862-.862h-3.406a.861.861,0,0,0-.862.862v3.406A.862.862,0,0,0,307.495,84.991Zm.862-3.407h1.683v1.683h-1.683Z" transform="translate(-273.718 -70.687)"/>
        <path id="Trazado_1034069" data-name="Trazado 1034069" d="M306.633,146.207a.861.861,0,0,0,.862.862H310.9a.861.861,0,0,0,.862-.862V142.8a.861.861,0,0,0-.862-.862h-3.406a.861.861,0,0,0-.862.862Zm1.723-2.545h1.683v1.683h-1.683Z" transform="translate(-273.718 -125.634)"/>
        <path id="Trazado_1034070" data-name="Trazado 1034070" d="M366.177,96.411h5.748a.862.862,0,1,0,0-1.723h-5.748a.862.862,0,0,0,0,1.723Z" transform="translate(-325.659 -83.811)"/>
        <path id="Trazado_1034071" data-name="Trazado 1034071" d="M366.177,143.661h5.748a.862.862,0,1,0,0-1.723h-5.748a.862.862,0,1,0,0,1.723Z" transform="translate(-325.659 -125.633)"/>
        <path id="Trazado_1034072" data-name="Trazado 1034072" d="M366.177,173.316h3.22a.862.862,0,0,0,0-1.723h-3.22a.862.862,0,1,0,0,1.723Z" transform="translate(-325.659 -151.882)"/>
        <path id="Trazado_1034073" data-name="Trazado 1034073" d="M83.561,17.774H95.819a2.761,2.761,0,0,0,2.758-2.758V2.758A2.761,2.761,0,0,0,95.819,0H83.561A2.761,2.761,0,0,0,80.8,2.758V15.016A2.761,2.761,0,0,0,83.561,17.774Zm12.259-1.723H94.368l2.486-2.621v1.586a1.036,1.036,0,0,1-1.035,1.035ZM82.526,2.758a1.036,1.036,0,0,1,1.035-1.035H95.819a1.036,1.036,0,0,1,1.035,1.035v8.169l-4.861,5.124H83.561a1.036,1.036,0,0,1-1.035-1.035Z" transform="translate(-73.83 0)"/>
        <path id="Trazado_1034074" data-name="Trazado 1034074" d="M119.25,42.045h7.416a.862.862,0,1,0,0-1.723H119.25a.862.862,0,1,0,0,1.723Z" transform="translate(-107.097 -35.69)"/>
        <path id="Trazado_1034075" data-name="Trazado 1034075" d="M119.25,77.631h4.863a.862.862,0,0,0,0-1.723H119.25a.862.862,0,1,0,0,1.723Z" transform="translate(-107.097 -67.188)"/>
      </g>
    </g>
  </g>
</svg>
