<svg xmlns="http://www.w3.org/2000/svg" xmlns:xlink="http://www.w3.org/1999/xlink" width="106" height="106" viewBox="0 0 106 106">
  <defs>
    <filter id="Trazado_982547" x="0" y="0" width="106" height="106" filterUnits="userSpaceOnUse">
      <feOffset dy="3" input="SourceAlpha"/>
      <feGaussianBlur stdDeviation="3" result="blur"/>
      <feFlood flood-opacity="0.161"/>
      <feComposite operator="in" in2="blur"/>
      <feComposite in="SourceGraphic"/>
    </filter>
    <clipPath id="clip-path">
      <path id="path1680" d="M0-682.665H56.131v56.131H0Z" transform="translate(0 682.665)"/>
    </clipPath>
  </defs>
  <g id="Grupo_1174702" data-name="Grupo 1174702" transform="translate(-171 -2512)">
    <g id="Grupo_1173911" data-name="Grupo 1173911" transform="translate(0 -2252)">
      <g id="Grupo_1173706" data-name="Grupo 1173706" transform="translate(0 520)">
        <g id="Grupo_1173435" data-name="Grupo 1173435" transform="translate(0 533)">
          <g id="Grupo_1172017" data-name="Grupo 1172017" transform="translate(0 2654)">
            <g id="Grupo_1167337" data-name="Grupo 1167337" transform="translate(180 1063)">
              <g id="Grupo_1166720" data-name="Grupo 1166720" transform="translate(0)">
                <g id="Grupo_1164305" data-name="Grupo 1164305">
                  <g id="Grupo_1163948" data-name="Grupo 1163948">
                    <g id="Grupo_1158168" data-name="Grupo 1158168">
                      <g id="Grupo_1152576" data-name="Grupo 1152576">
                        <g id="Grupo_1148633" data-name="Grupo 1148633">
                          <g id="Grupo_1148525" data-name="Grupo 1148525">
                            <g transform="matrix(1, 0, 0, 1, -9, -6)" filter="url(#Trazado_982547)">
                              <g id="Trazado_982547-2" data-name="Trazado 982547" transform="translate(9 6)" fill="#e9f9fd">
                                <path d="M 44 86.5 C 38.26187515258789 86.5 32.69618606567383 85.37651062011719 27.45755004882812 83.16075897216797 C 22.3968505859375 81.020263671875 17.85157585144043 77.95565032958984 13.94796276092529 74.05204010009766 C 10.04434967041016 70.1484375 6.979737281799316 65.6031494140625 4.839250087738037 60.54246139526367 C 2.62348747253418 55.30381393432617 1.5 49.73812484741211 1.5 44 C 1.5 38.26187515258789 2.62348747253418 32.69618606567383 4.839250087738037 27.45755004882812 C 6.979737281799316 22.3968505859375 10.04434967041016 17.85157585144043 13.94796276092529 13.94796276092529 C 17.85157585144043 10.04434967041016 22.3968505859375 6.979737281799316 27.45755004882812 4.839250087738037 C 32.69618606567383 2.62348747253418 38.26187515258789 1.5 44 1.5 C 49.73812484741211 1.5 55.30381393432617 2.62348747253418 60.54246139526367 4.839250087738037 C 65.6031494140625 6.979737281799316 70.1484375 10.04434967041016 74.05204010009766 13.94796276092529 C 77.95565032958984 17.85157585144043 81.020263671875 22.3968505859375 83.16075897216797 27.45755004882812 C 85.37651062011719 32.69618606567383 86.5 38.26187515258789 86.5 44 C 86.5 49.73812484741211 85.37651062011719 55.30381393432617 83.16075897216797 60.54246139526367 C 81.020263671875 65.6031494140625 77.95565032958984 70.1484375 74.05204010009766 74.05204010009766 C 70.1484375 77.95565032958984 65.6031494140625 81.020263671875 60.54246139526367 83.16075897216797 C 55.30381393432617 85.37651062011719 49.73812484741211 86.5 44 86.5 Z" stroke="none"/>
                                <path d="M 44 3 C 38.46371459960938 3 33.09462738037109 4.083610534667969 28.0418701171875 6.220756530761719 C 23.15997314453125 8.285614013671875 18.77495574951172 11.24228668212891 15.00862884521484 15.00862884521484 C 11.24228668212891 18.77495574951172 8.285614013671875 23.15997314453125 6.220756530761719 28.0418701171875 C 4.083610534667969 33.09462738037109 3 38.46371459960938 3 44 C 3 49.53628540039062 4.083610534667969 54.9053840637207 6.220756530761719 59.9581298828125 C 8.285614013671875 64.84002685546875 11.24228668212891 69.22504425048828 15.00862884521484 72.99138641357422 C 18.77495574951172 76.75771331787109 23.15997314453125 79.71438598632812 28.0418701171875 81.77925872802734 C 33.09462738037109 83.9163818359375 38.46371459960938 85 44 85 C 49.53628540039062 85 54.9053840637207 83.9163818359375 59.95814514160156 81.77925872802734 C 64.84002685546875 79.71438598632812 69.22504425048828 76.75771331787109 72.99138641357422 72.99138641357422 C 76.75771331787109 69.22504425048828 79.71438598632812 64.84002685546875 81.77925872802734 59.95814514160156 C 83.9163818359375 54.9053840637207 85 49.53628540039062 85 44 C 85 38.46371459960938 83.9163818359375 33.09462738037109 81.77925872802734 28.0418701171875 C 79.71438598632812 23.15997314453125 76.75771331787109 18.77495574951172 72.99138641357422 15.00862884521484 C 69.22504425048828 11.24228668212891 64.84002685546875 8.285614013671875 59.9581298828125 6.220756530761719 C 54.9053840637207 4.083610534667969 49.53628540039062 3 44 3 M 44 0 C 68.30054473876953 0 88 19.69947052001953 88 44 C 88 68.30054473876953 68.30054473876953 88 44 88 C 19.69947052001953 88 0 68.30054473876953 0 44 C 0 19.69947052001953 19.69947052001953 0 44 0 Z" stroke="none" fill="#1d7083"/>
                              </g>
                            </g>
                          </g>
                        </g>
                      </g>
                    </g>
                  </g>
                </g>
              </g>
            </g>
          </g>
        </g>
      </g>
    </g>
    <g id="g1674" transform="translate(198.172 3216.599)">
      <g id="g1676" transform="translate(0 -682.665)">
        <g id="g1678" clip-path="url(#clip-path)">
          <g id="g1684" transform="translate(33.048 1.096)">
            <path id="path1686" d="M-36.432-106.835h7.969L-39.7-116.406v6.308a3.272,3.272,0,0,0,3.264,3.263" transform="translate(39.696 116.406)" fill="#dad0d3" fill-rule="evenodd"/>
          </g>
          <g id="g1688" transform="translate(1.644 7.097)">
            <path id="path1690" d="M-63.679-438.373v-39.274h-3.047a2.668,2.668,0,0,0-2.658,2.66v42.618a2.668,2.668,0,0,0,2.658,2.66h39.972a2.517,2.517,0,0,1-1.2-.475,16.975,16.975,0,0,1-5.388-5.528H-61.024a2.666,2.666,0,0,1-2.655-2.66" transform="translate(69.384 477.647)" fill="#cdc0c4" fill-rule="evenodd"/>
          </g>
          <g id="g1692" transform="translate(7.349 1.096)">
            <path id="path1694" d="M-326.747-514.718a20.026,20.026,0,0,1-2.55-9.512c.012-1.377.32-1.529,1.463-2.144l8.745-4.72v-20.165h-7.969a3.272,3.272,0,0,1-3.264-3.263v-6.308h-23.043a2.666,2.666,0,0,0-2.655,2.66v42.615a2.666,2.666,0,0,0,2.655,2.66h27.686c-.376-.584-.733-1.193-1.068-1.821" transform="translate(356.02 560.832)" fill="#f3eff0" fill-rule="evenodd"/>
          </g>
          <g id="g1696" transform="translate(34.072 30.833)">
            <path id="path1698" d="M-199.4-182.8a20.026,20.026,0,0,0,2.55-9.512c-.012-1.377-.32-1.529-1.46-2.144l-8.745-4.72-8.745,4.72c-1.143.615-1.45.768-1.463,2.144a20.026,20.026,0,0,0,2.55,9.512c.335.628.693,1.237,1.068,1.821a16.978,16.978,0,0,0,5.388,5.528,2.517,2.517,0,0,0,1.2.475h.009a2.494,2.494,0,0,0,1.2-.475A18.628,18.628,0,0,0-199.4-182.8" transform="translate(217.26 199.177)" fill="#a0e5a5" fill-rule="evenodd"/>
          </g>
          <g id="g1700" transform="translate(1.644 7.097)">
            <path id="path1702" d="M-475.909-535.079h-39.978a2.668,2.668,0,0,1-2.659-2.66v-42.618a2.668,2.668,0,0,1,2.659-2.66h3.047" transform="translate(518.545 583.017)" fill="none" stroke="#000" stroke-linecap="round" stroke-linejoin="round" stroke-miterlimit="10" stroke-width="1.3"/>
          </g>
          <g id="g1704" transform="translate(7.349 1.096)">
            <path id="path1706" d="M-90.89-535.045h-5.488a2.666,2.666,0,0,1-2.655-2.66V-580.32a2.666,2.666,0,0,1,2.655-2.66h23.044l11.233,9.571v20.165m-6.59,18.2H-81.049" transform="translate(99.033 582.98)" fill="none" stroke="#000" stroke-linecap="round" stroke-linejoin="round" stroke-miterlimit="10" stroke-width="1.3"/>
          </g>
          <g id="g1708" transform="translate(33.048 1.096)">
            <path id="path1710" d="M-125.381-106.835h-7.969a3.272,3.272,0,0,1-3.264-3.263v-6.308" transform="translate(136.614 116.406)" fill="none" stroke="#000" stroke-linecap="round" stroke-linejoin="round" stroke-miterlimit="10" stroke-width="1.3"/>
          </g>
          <g id="g1712" transform="translate(14.085 15.413)">
            <path id="path1714" d="M0,0H23.456" fill="none" stroke="#000" stroke-linecap="round" stroke-linejoin="round" stroke-miterlimit="10" stroke-width="1.3"/>
          </g>
          <g id="g1716" transform="translate(14.085 20.935)">
            <path id="path1718" d="M-176.511,0h7.643m-23.457,0h8.087" transform="translate(192.325)" fill="none" stroke="#000" stroke-linecap="round" stroke-linejoin="round" stroke-miterlimit="10" stroke-width="1.3"/>
          </g>
          <g id="g1720" transform="translate(14.085 26.457)">
            <path id="path1722" d="M0,0H23.456" fill="none" stroke="#000" stroke-linecap="round" stroke-linejoin="round" stroke-miterlimit="10" stroke-width="1.3"/>
          </g>
          <g id="g1724" transform="translate(14.086 31.98)">
            <path id="path1726" d="M-86.279,0h9.062M-94.009,0H-91.8" transform="translate(94.009)" fill="none" stroke="#000" stroke-linecap="round" stroke-linejoin="round" stroke-miterlimit="10" stroke-width="1.3"/>
          </g>
          <g id="g1728" transform="translate(14.085 37.502)">
            <path id="path1730" d="M0,0H13.5" fill="none" stroke="#000" stroke-linecap="round" stroke-linejoin="round" stroke-miterlimit="10" stroke-width="1.3"/>
          </g>
          <g id="g1732" transform="translate(14.085 9.888)">
            <path id="path1734" d="M0,0H13.522" fill="none" stroke="#000" stroke-linecap="round" stroke-linejoin="round" stroke-miterlimit="10" stroke-width="1.3"/>
          </g>
          <g id="g1736" transform="translate(34.072 30.833)">
            <path id="path1738" d="M-100.534-264.834a18.628,18.628,0,0,1-6.457-7.349,20.026,20.026,0,0,1-2.55-9.512c.012-1.377.32-1.529,1.463-2.144l8.745-4.72,8.745,4.72c1.14.615,1.447.768,1.46,2.144a20.026,20.026,0,0,1-2.55,9.512,18.627,18.627,0,0,1-6.457,7.349A1.753,1.753,0,0,1-100.534-264.834Z" transform="translate(109.541 288.561)" fill="none" stroke="#000" stroke-linecap="round" stroke-linejoin="round" stroke-miterlimit="10" stroke-width="1.3"/>
          </g>
          <g id="g1740" transform="translate(20.408 49.031)">
            <path id="path1742" d="M0,0H.006" fill="none" stroke="#000" stroke-linecap="round" stroke-linejoin="round" stroke-miterlimit="10" stroke-width="1.3"/>
          </g>
          <g id="g1744" transform="translate(40.865 40.125)">
            <path id="path1746" d="M0-29.554l2.224,2.085L6.832-32.2" transform="translate(0 32.201)" fill="none" stroke="#000" stroke-linecap="round" stroke-linejoin="round" stroke-miterlimit="10" stroke-width="1.3"/>
          </g>
        </g>
      </g>
    </g>
  </g>
</svg>
