<svg xmlns="http://www.w3.org/2000/svg" xmlns:xlink="http://www.w3.org/1999/xlink" width="108" height="108" viewBox="0 0 108 108">
  <defs>
    <filter id="Trazado_904820" x="0" y="0" width="108" height="108" filterUnits="userSpaceOnUse">
      <feOffset dy="3" input="SourceAlpha"/>
      <feGaussianBlur stdDeviation="3" result="blur"/>
      <feFlood flood-opacity="0.161"/>
      <feComposite operator="in" in2="blur"/>
      <feComposite in="SourceGraphic"/>
    </filter>
  </defs>
  <g id="Grupo_1174440" data-name="Grupo 1174440" transform="translate(9 6)">
    <g id="Grupo_1172952" data-name="Grupo 1172952" transform="translate(0 0)">
      <g id="Grupo_1171958" data-name="Grupo 1171958">
        <g id="Grupo_1167341" data-name="Grupo 1167341">
          <g id="Grupo_1166792" data-name="Grupo 1166792">
            <g transform="matrix(1, 0, 0, 1, -9, -6)" filter="url(#Trazado_904820)">
              <g id="Trazado_904820-2" data-name="Trazado 904820" transform="translate(9 6)" fill="#f2f7e5">
                <path d="M 44.99999618530273 88.49999237060547 C 39.12687301635742 88.49999237060547 33.43022155761719 87.35006713867188 28.06829643249512 85.08216857910156 C 22.88852119445801 82.89130401611328 18.23629570007324 79.75457763671875 14.24084663391113 75.75914001464844 C 10.24540901184082 71.76369476318359 7.108683586120605 67.11146545410156 4.917821407318115 61.93169403076172 C 2.649921178817749 56.56976699829102 1.499996185302734 50.87311553955078 1.499996185302734 44.99999237060547 C 1.499996185302734 39.12686920166016 2.649921178817749 33.43021774291992 4.917821407318115 28.06829261779785 C 7.108683586120605 22.88851737976074 10.24540901184082 18.23630523681641 14.24084663391113 14.24085521697998 C 18.23629570007324 10.24540519714355 22.88852119445801 7.108692169189453 28.06829643249512 4.917829990386963 C 33.43022155761719 2.649929761886597 39.12687301635742 1.500004887580872 44.99999618530273 1.500004887580872 C 50.87311935424805 1.500004887580872 56.56977081298828 2.649929761886597 61.93169784545898 4.917829990386963 C 67.11147308349609 7.108692169189453 71.76369476318359 10.24540519714355 75.75914764404297 14.24085521697998 C 79.75458526611328 18.23630523681641 82.89131164550781 22.88851737976074 85.08216857910156 28.06829261779785 C 87.35007476806641 33.43021774291992 88.5 39.12686920166016 88.5 44.99999237060547 C 88.5 50.87311553955078 87.35007476806641 56.56976699829102 85.08216857910156 61.93169403076172 C 82.89131164550781 67.11146545410156 79.75458526611328 71.76369476318359 75.75914764404297 75.75914001464844 C 71.76369476318359 79.75457763671875 67.11147308349609 82.89130401611328 61.93169784545898 85.08216857910156 C 56.56977081298828 87.35006713867188 50.87311935424805 88.49999237060547 44.99999618530273 88.49999237060547 Z" stroke="none"/>
                <path d="M 44.99999618530273 2.999992370605469 C 39.32870864868164 2.999992370605469 33.82865142822266 4.11004638671875 28.65262603759766 6.299331665039062 C 23.65165710449219 8.414566040039062 19.15968322753906 11.44333648681641 15.301513671875 15.30150604248047 C 11.44333648681641 19.15967559814453 8.414566040039062 23.65164947509766 6.299339294433594 28.65262222290039 C 4.110054016113281 33.82864761352539 2.999992370605469 39.32870483398438 2.999992370605469 44.99999237060547 C 2.999992370605469 50.67127990722656 4.110054016113281 56.17132186889648 6.299339294433594 61.34736633300781 C 8.414566040039062 66.34833526611328 11.44333648681641 70.84029388427734 15.301513671875 74.69846343994141 C 19.15968322753906 78.55663299560547 23.65165710449219 81.58540344238281 28.65262603759766 83.70063781738281 C 33.82865142822266 85.88992309570312 39.32870864868164 86.99997711181641 44.99999618530273 86.99997711181641 C 50.67128372192383 86.99997711181641 56.17134094238281 85.88992309570312 61.34736633300781 83.70063781738281 C 66.34834289550781 81.58540344238281 70.84030914306641 78.55663299560547 74.69847869873047 74.69846343994141 C 78.55665588378906 70.84029388427734 81.58542633056641 66.34833526611328 83.70065307617188 61.34736633300781 C 85.88993835449219 56.17132186889648 87 50.67127990722656 87 44.99999237060547 C 87 39.32870483398438 85.88993835449219 33.82864761352539 83.70065307617188 28.65262222290039 C 81.58542633056641 23.65164947509766 78.55665588378906 19.15967559814453 74.69847869873047 15.30150604248047 C 70.84030914306641 11.44333648681641 66.34834289550781 8.414566040039062 61.34736633300781 6.299331665039062 C 56.17134094238281 4.11004638671875 50.67128372192383 2.999992370605469 44.99999618530273 2.999992370605469 M 44.99999618530273 -7.62939453125e-06 C 69.85281372070312 -7.62939453125e-06 90 20.14717864990234 90 44.99999237060547 C 90 69.85279083251953 69.85281372070312 89.99997711181641 44.99999618530273 89.99997711181641 C 20.14717864990234 89.99997711181641 -7.62939453125e-06 69.85279083251953 -7.62939453125e-06 44.99999237060547 C -7.62939453125e-06 20.14717864990234 20.14717864990234 -7.62939453125e-06 44.99999618530273 -7.62939453125e-06 Z" stroke="none" fill="#86b60c"/>
              </g>
            </g>
          </g>
        </g>
      </g>
    </g>
    <g id="planning_17009402" transform="translate(15.428 15.502)">
      <g id="Grupo_1174659" data-name="Grupo 1174659" transform="translate(16.943 50.834)">
        <path id="Trazado_1034000" data-name="Trazado 1034000" d="M52.608,62.81H29.5a21.615,21.615,0,0,1-5.941-.826,20.228,20.228,0,0,1-2.433-.844l-2.1-.87a.383.383,0,0,1,0-.71l2.1-.87a20.228,20.228,0,0,1,2.433-.844A21.615,21.615,0,0,1,29.5,57.02H52.608a1.467,1.467,0,0,1,1.465,1.465v2.86a1.467,1.467,0,0,1-1.465,1.465Z" transform="translate(-18.78 -57.02)" fill="#ffd24f"/>
      </g>
      <g id="Grupo_1174660" data-name="Grupo 1174660" transform="translate(52.236 52.104)">
        <path id="Trazado_1034001" data-name="Trazado 1034001" d="M60.643,61.692H58.52V58.45h2.123a1.623,1.623,0,0,1,1.155.471,1.6,1.6,0,0,1,.471,1.146A1.626,1.626,0,0,1,60.643,61.692Z" transform="translate(-58.52 -58.45)" fill="#242b2b"/>
      </g>
      <g id="Grupo_1174661" data-name="Grupo 1174661" transform="translate(21.712 50.834)">
        <path id="Trazado_1034002" data-name="Trazado 1034002" d="M35.953,62.81H30.091a21.615,21.615,0,0,1-5.941-.826V57.846a21.615,21.615,0,0,1,5.941-.826h5.861Z" transform="translate(-24.15 -57.02)" fill="#ff4148"/>
      </g>
      <g id="Grupo_1174662" data-name="Grupo 1174662" transform="translate(8.372 19.662)">
        <path id="Trazado_1034003" data-name="Trazado 1034003" d="M21.377,21.92l-4.485,1.226a4.559,4.559,0,0,0-3.126,2.931l-1.883,5.5a11.71,11.71,0,0,0-.6,3.073,11.613,11.613,0,0,1-1.687,5.364l-.462.746,8.455,4.094,8-7.5" transform="translate(-9.13 -21.92)" fill="#ffcfc5"/>
      </g>
      <g id="Grupo_1174663" data-name="Grupo 1174663" transform="translate(7.742 19.037)">
        <path id="Trazado_1034004" data-name="Trazado 1034004" d="M17.505,45.411a.6.6,0,0,1-.275-.062L8.775,41.255a.634.634,0,0,1-.258-.906l.462-.746a11.044,11.044,0,0,0,1.59-5.071,12.2,12.2,0,0,1,.639-3.242l1.883-5.5a5.205,5.205,0,0,1,3.561-3.339l4.485-1.217a.636.636,0,0,1,.337,1.226L16.99,23.68A3.949,3.949,0,0,0,14.3,26.2l-1.883,5.5a11.234,11.234,0,0,0-.577,2.9,12.24,12.24,0,0,1-1.776,5.666l-.089.151,7.433,3.6,7.682-7.211a.635.635,0,1,1,.87.924l-8,7.5a.667.667,0,0,1-.453.178Z" transform="translate(-8.42 -21.216)" fill="#161c1c"/>
      </g>
      <g id="Grupo_1174664" data-name="Grupo 1174664" transform="translate(2.999 35.684)">
        <path id="Trazado_1034005" data-name="Trazado 1034005" d="M11.854,60.9H3.08V45.91l3.544-5.142a1.617,1.617,0,0,1,2.211-.586l9.973,5.79a1.623,1.623,0,0,1,.586,2.22Z" transform="translate(-3.08 -39.961)" fill="#007afd"/>
      </g>
      <g id="Grupo_1174665" data-name="Grupo 1174665" transform="translate(12.496 42.769)">
        <path id="Trazado_1034006" data-name="Trazado 1034006" d="M16.737,50.125a1.55,1.55,0,1,1-.782-2.052A1.557,1.557,0,0,1,16.737,50.125Z" transform="translate(-13.773 -47.939)" fill="#fff"/>
      </g>
      <g id="Grupo_1174666" data-name="Grupo 1174666" transform="translate(2.36 35.043)">
        <path id="Trazado_1034007" data-name="Trazado 1034007" d="M11.774,61.451H3a.637.637,0,0,1-.639-.639V45.83a.593.593,0,0,1,.115-.364l3.544-5.142a2.25,2.25,0,0,1,3.055-.782l9.973,5.79A2.216,2.216,0,0,1,20.1,46.709a2.267,2.267,0,0,1-.231,1.714L12.316,61.141a.626.626,0,0,1-.542.311Zm-8.135-1.27H11.41l7.371-12.407a.95.95,0,0,0,.1-.746.989.989,0,0,0-.462-.6L8.444,40.652a.985.985,0,0,0-1.35.355L3.639,46.025Z" transform="translate(-2.36 -39.239)" fill="#161c1c"/>
      </g>
      <g id="Grupo_1174667" data-name="Grupo 1174667" transform="translate(20.957 2.379)">
        <path id="Trazado_1034008" data-name="Trazado 1034008" d="M58.487,5.435V32.318c-3.97,8.81-10.178,15.062-21.066,15.959-.2.018-.409.036-.613.044H26.275A2.975,2.975,0,0,1,23.3,45.347V5.435A2.975,2.975,0,0,1,26.275,2.46H55.5a2.977,2.977,0,0,1,2.984,2.975Z" transform="translate(-23.3 -2.46)" fill="#04b5a4"/>
      </g>
      <g id="Grupo_1174668" data-name="Grupo 1174668" transform="translate(20.326 1.74)">
        <path id="Trazado_1034009" data-name="Trazado 1034009" d="M26.2,48.881a3.618,3.618,0,0,1-3.615-3.615V5.355A3.618,3.618,0,0,1,26.2,1.74H55.432a3.618,3.618,0,0,1,3.615,3.615V32.237a.637.637,0,0,1-.053.258C54.411,42.664,47.341,48,37.395,48.827c-.2.018-.426.036-.639.044Zm0-45.862a2.339,2.339,0,0,0-2.336,2.336V45.266A2.339,2.339,0,0,0,26.2,47.6H36.72c.169-.009.364-.027.56-.044,9.538-.79,16.057-5.7,20.489-15.462V5.355a2.339,2.339,0,0,0-2.336-2.336Z" transform="translate(-22.59 -1.74)" fill="#161c1c"/>
      </g>
      <g id="Grupo_1174669" data-name="Grupo 1174669" transform="translate(34.456 32.237)">
        <path id="Trazado_1034010" data-name="Trazado 1034010" d="M39.113,52.039c-.2.018-.409.036-.613.044a4.521,4.521,0,0,0,.613-.044,4.1,4.1,0,0,0-.613-8.153L60.179,36.08c-3.961,8.8-10.169,15.062-21.066,15.959" transform="translate(-38.5 -36.08)" fill="#e5e8ff"/>
      </g>
      <g id="Grupo_1174670" data-name="Grupo 1174670" transform="translate(33.807 31.587)">
        <path id="Trazado_1034011" data-name="Trazado 1034011" d="M38.418,52.641a.635.635,0,0,1-.036-1.27c.2-.009.382-.027.568-.044a3.472,3.472,0,0,0-.542-6.9.636.636,0,0,1-.222-1.234l21.679-7.806a.64.64,0,0,1,.8.861c-4.583,10.16-11.643,15.506-21.581,16.332a3.261,3.261,0,0,1-.666.062ZM40.594,43.7a4.74,4.74,0,0,1,1.492,7.2c7.487-1.456,12.886-5.906,16.785-13.783Z" transform="translate(-37.769 -35.347)" fill="#161c1c"/>
      </g>
      <g id="Grupo_1174671" data-name="Grupo 1174671" transform="translate(14.349 23.116)">
        <path id="Trazado_1034012" data-name="Trazado 1034012" d="M17.13,36.725l2.1-3.943A4.741,4.741,0,0,1,21.8,30.552l.817-.293a3.175,3.175,0,0,0,2.007-3.748l-.053-.222a.626.626,0,0,0-.817-.444l-4.663,1.6a4.643,4.643,0,0,0-2.176,1.545L15.86,30.33" transform="translate(-15.86 -25.809)" fill="#ffcfc5"/>
      </g>
      <g id="Grupo_1174672" data-name="Grupo 1174672" transform="translate(13.718 22.472)">
        <path id="Trazado_1034013" data-name="Trazado 1034013" d="M17.05,37.274a.75.75,0,0,1-.3-.071.643.643,0,0,1-.266-.861l2.1-3.943a5.37,5.37,0,0,1,2.931-2.531l.817-.293a2.537,2.537,0,0,0,1.607-2.993l-.053-.231-4.663,1.6a4.124,4.124,0,0,0-1.883,1.332l-1.057,1.341a.626.626,0,0,1-.888.107.636.636,0,0,1-.107-.888L16.34,28.5a5.379,5.379,0,0,1,2.469-1.75l4.663-1.6a1.281,1.281,0,0,1,1.021.089,1.244,1.244,0,0,1,.622.808l.053.222a3.8,3.8,0,0,1-2.407,4.494l-.817.293a4.15,4.15,0,0,0-2.238,1.927l-2.1,3.943A.635.635,0,0,1,17.05,37.274Z" transform="translate(-15.149 -25.084)" fill="#161c1c"/>
      </g>
      <g id="Grupo_1174673" data-name="Grupo 1174673" transform="translate(33.31 9.955)">
        <path id="Trazado_1034014" data-name="Trazado 1034014" d="M37.929,31.141a.637.637,0,0,1-.639-.639V28.157a3.646,3.646,0,0,1,3.641-3.641h7.425a2.376,2.376,0,0,0,2.371-2.371v-7.5a2.376,2.376,0,0,0-2.371-2.371H37.849a.639.639,0,0,1,0-1.279H48.356A3.646,3.646,0,0,1,52,14.631v7.5a3.646,3.646,0,0,1-3.641,3.641H40.931a2.376,2.376,0,0,0-2.371,2.371v2.345a.631.631,0,0,1-.631.648Z" transform="translate(-37.21 -10.99)" fill="#161c1c"/>
      </g>
      <g id="Grupo_1174674" data-name="Grupo 1174674" transform="translate(27.307 7.282)">
        <path id="Trazado_1034015" data-name="Trazado 1034015" d="M37.093,11.3A3.322,3.322,0,1,1,33.772,7.98,3.322,3.322,0,0,1,37.093,11.3Z" transform="translate(-30.45 -7.98)" fill="#ff4148"/>
      </g>
      <g id="Grupo_1174675" data-name="Grupo 1174675" transform="translate(30.628 29.467)">
        <path id="Trazado_1034016" data-name="Trazado 1034016" d="M40.833,36.282a3.322,3.322,0,1,1-3.322-3.322A3.322,3.322,0,0,1,40.833,36.282Z" transform="translate(-34.19 -32.96)" fill="#ffd24f"/>
      </g>
      <g id="Grupo_1174676" data-name="Grupo 1174676" transform="translate(43.151 19.609)">
        <path id="Trazado_1034017" data-name="Trazado 1034017" d="M54.933,25.182a3.322,3.322,0,1,1-3.322-3.322A3.322,3.322,0,0,1,54.933,25.182Z" transform="translate(-48.29 -21.86)" fill="#ffeee3"/>
      </g>
      <g id="Grupo_1174677" data-name="Grupo 1174677" transform="translate(26.676 6.651)">
        <path id="Trazado_1034018" data-name="Trazado 1034018" d="M33.7,15.174a3.952,3.952,0,1,1,3.952-3.952A3.963,3.963,0,0,1,33.7,15.174Zm0-6.634a2.682,2.682,0,1,0,2.682,2.682A2.693,2.693,0,0,0,33.7,8.54Z" transform="translate(-29.74 -7.27)" fill="#161c1c"/>
      </g>
      <g id="Grupo_1174678" data-name="Grupo 1174678" transform="translate(29.998 28.836)">
        <path id="Trazado_1034019" data-name="Trazado 1034019" d="M37.441,40.154A3.952,3.952,0,1,1,41.393,36.2,3.963,3.963,0,0,1,37.441,40.154Zm0-6.634A2.682,2.682,0,1,0,40.123,36.2,2.693,2.693,0,0,0,37.441,33.52Z" transform="translate(-33.48 -32.25)" fill="#161c1c"/>
      </g>
      <g id="Grupo_1174679" data-name="Grupo 1174679" transform="translate(42.52 18.978)">
        <path id="Trazado_1034020" data-name="Trazado 1034020" d="M51.541,29.054A3.952,3.952,0,1,1,55.493,25.1,3.963,3.963,0,0,1,51.541,29.054Zm0-6.634A2.682,2.682,0,1,0,54.223,25.1,2.693,2.693,0,0,0,51.541,22.42Z" transform="translate(-47.58 -21.15)" fill="#161c1c"/>
      </g>
      <g id="Grupo_1174680" data-name="Grupo 1174680" transform="translate(16.303 50.186)">
        <path id="Trazado_1034021" data-name="Trazado 1034021" d="M52.527,63.359H29.419a22.274,22.274,0,0,1-6.119-.853,21.694,21.694,0,0,1-2.5-.87l-2.1-.87a1.018,1.018,0,0,1,0-1.883l2.1-.87a21.129,21.129,0,0,1,2.5-.87,22.505,22.505,0,0,1,6.11-.853H52.518a2.1,2.1,0,0,1,2.1,2.1v2.86A2.1,2.1,0,0,1,52.527,63.359ZM19.739,59.825l1.545.639a18.648,18.648,0,0,0,2.353.817,21.169,21.169,0,0,0,5.773.808H52.518a.834.834,0,0,0,.835-.835v-2.86a.834.834,0,0,0-.835-.835h-23.1a20.785,20.785,0,0,0-5.773.808,18.278,18.278,0,0,0-2.362.817Z" transform="translate(-18.06 -56.29)" fill="#161c1c"/>
      </g>
      <g id="Grupo_1174681" data-name="Grupo 1174681" transform="translate(39.802 53.081)">
        <path id="Trazado_1034022" data-name="Trazado 1034022" d="M54.076,60.829H45.159a.639.639,0,1,1,0-1.279h8.908a.639.639,0,0,1,.009,1.279Z" transform="translate(-44.52 -59.55)" fill="#161c1c"/>
      </g>
      <g id="Grupo_1174682" data-name="Grupo 1174682" transform="translate(51.596 51.456)">
        <path id="Trazado_1034023" data-name="Trazado 1034023" d="M60.562,62.24H58.439A.637.637,0,0,1,57.8,61.6V58.359a.637.637,0,0,1,.639-.639h2.123a2.26,2.26,0,0,1,0,4.52Zm-1.483-1.27h1.492A.986.986,0,1,0,60.58,59H59.088V60.97Z" transform="translate(-57.8 -57.72)" fill="#161c1c"/>
      </g>
      <g id="Grupo_1174683" data-name="Grupo 1174683" transform="translate(21.072 50.186)">
        <path id="Trazado_1034024" data-name="Trazado 1034024" d="M35.872,63.359H30.011a22.274,22.274,0,0,1-6.119-.853.637.637,0,0,1-.462-.613V57.755a.637.637,0,0,1,.462-.613,22.227,22.227,0,0,1,6.119-.853h5.861a.637.637,0,0,1,.639.639v5.8a.635.635,0,0,1-.639.631ZM24.709,61.414a20.933,20.933,0,0,0,5.311.675h5.222V57.56H30.02a21.393,21.393,0,0,0-5.311.675Z" transform="translate(-23.43 -56.29)" fill="#161c1c"/>
      </g>
      <g id="Grupo_1174684" data-name="Grupo 1174684" transform="translate(11.864 42.132)">
        <path id="Trazado_1034025" data-name="Trazado 1034025" d="M15.236,51.59A2.17,2.17,0,0,1,13.2,50.169a2.183,2.183,0,1,1,4.032.142A2.2,2.2,0,0,1,15.236,51.59Zm.009-3.1a.862.862,0,0,0-.329.062.91.91,0,0,0-.506.471.957.957,0,0,0-.027.7.91.91,0,0,0,.471.506.916.916,0,1,0,.755-1.67.95.95,0,0,0-.364-.071Z" transform="translate(-13.061 -47.221)" fill="#161c1c"/>
      </g>
    </g>
  </g>
</svg>
