<svg xmlns="http://www.w3.org/2000/svg" xmlns:xlink="http://www.w3.org/1999/xlink" width="106" height="106" viewBox="0 0 106 106">
  <defs>
    <filter id="Trazado_982547" x="0" y="0" width="106" height="106" filterUnits="userSpaceOnUse">
      <feOffset dy="3" input="SourceAlpha"/>
      <feGaussianBlur stdDeviation="3" result="blur"/>
      <feFlood flood-opacity="0.161"/>
      <feComposite operator="in" in2="blur"/>
      <feComposite in="SourceGraphic"/>
    </filter>
  </defs>
  <g id="Grupo_1174697" data-name="Grupo 1174697" transform="translate(-171 -7864)">
    <g id="Grupo_1174456" data-name="Grupo 1174456" transform="translate(0 3100)">
      <g id="Grupo_1173706" data-name="Grupo 1173706" transform="translate(0 520)">
        <g id="Grupo_1173435" data-name="Grupo 1173435" transform="translate(0 533)">
          <g id="Grupo_1172017" data-name="Grupo 1172017" transform="translate(0 2654)">
            <g id="Grupo_1167337" data-name="Grupo 1167337" transform="translate(180 1063)">
              <g id="Grupo_1166720" data-name="Grupo 1166720" transform="translate(0)">
                <g id="Grupo_1164305" data-name="Grupo 1164305">
                  <g id="Grupo_1163948" data-name="Grupo 1163948">
                    <g id="Grupo_1158168" data-name="Grupo 1158168">
                      <g id="Grupo_1152576" data-name="Grupo 1152576">
                        <g id="Grupo_1148633" data-name="Grupo 1148633">
                          <g id="Grupo_1148525" data-name="Grupo 1148525">
                            <g transform="matrix(1, 0, 0, 1, -9, -6)" filter="url(#Trazado_982547)">
                              <g id="Trazado_982547-2" data-name="Trazado 982547" transform="translate(9 6)" fill="#e9f9fd">
                                <path d="M 44 86.5 C 38.26187515258789 86.5 32.69618606567383 85.37651062011719 27.45755004882812 83.16075897216797 C 22.3968505859375 81.020263671875 17.85157585144043 77.95565032958984 13.94796276092529 74.05204010009766 C 10.04434967041016 70.1484375 6.979737281799316 65.6031494140625 4.839250087738037 60.54246139526367 C 2.62348747253418 55.30381393432617 1.5 49.73812484741211 1.5 44 C 1.5 38.26187515258789 2.62348747253418 32.69618606567383 4.839250087738037 27.45755004882812 C 6.979737281799316 22.3968505859375 10.04434967041016 17.85157585144043 13.94796276092529 13.94796276092529 C 17.85157585144043 10.04434967041016 22.3968505859375 6.979737281799316 27.45755004882812 4.839250087738037 C 32.69618606567383 2.62348747253418 38.26187515258789 1.5 44 1.5 C 49.73812484741211 1.5 55.30381393432617 2.62348747253418 60.54246139526367 4.839250087738037 C 65.6031494140625 6.979737281799316 70.1484375 10.04434967041016 74.05204010009766 13.94796276092529 C 77.95565032958984 17.85157585144043 81.020263671875 22.3968505859375 83.16075897216797 27.45755004882812 C 85.37651062011719 32.69618606567383 86.5 38.26187515258789 86.5 44 C 86.5 49.73812484741211 85.37651062011719 55.30381393432617 83.16075897216797 60.54246139526367 C 81.020263671875 65.6031494140625 77.95565032958984 70.1484375 74.05204010009766 74.05204010009766 C 70.1484375 77.95565032958984 65.6031494140625 81.020263671875 60.54246139526367 83.16075897216797 C 55.30381393432617 85.37651062011719 49.73812484741211 86.5 44 86.5 Z" stroke="none"/>
                                <path d="M 44 3 C 38.46371459960938 3 33.09462738037109 4.083610534667969 28.0418701171875 6.220756530761719 C 23.15997314453125 8.285614013671875 18.77495574951172 11.24228668212891 15.00862884521484 15.00862884521484 C 11.24228668212891 18.77495574951172 8.285614013671875 23.15997314453125 6.220756530761719 28.0418701171875 C 4.083610534667969 33.09462738037109 3 38.46371459960938 3 44 C 3 49.53628540039062 4.083610534667969 54.9053840637207 6.220756530761719 59.9581298828125 C 8.285614013671875 64.84002685546875 11.24228668212891 69.22504425048828 15.00862884521484 72.99138641357422 C 18.77495574951172 76.75771331787109 23.15997314453125 79.71438598632812 28.0418701171875 81.77925872802734 C 33.09462738037109 83.9163818359375 38.46371459960938 85 44 85 C 49.53628540039062 85 54.9053840637207 83.9163818359375 59.95814514160156 81.77925872802734 C 64.84002685546875 79.71438598632812 69.22504425048828 76.75771331787109 72.99138641357422 72.99138641357422 C 76.75771331787109 69.22504425048828 79.71438598632812 64.84002685546875 81.77925872802734 59.95814514160156 C 83.9163818359375 54.9053840637207 85 49.53628540039062 85 44 C 85 38.46371459960938 83.9163818359375 33.09462738037109 81.77925872802734 28.0418701171875 C 79.71438598632812 23.15997314453125 76.75771331787109 18.77495574951172 72.99138641357422 15.00862884521484 C 69.22504425048828 11.24228668212891 64.84002685546875 8.285614013671875 59.9581298828125 6.220756530761719 C 54.9053840637207 4.083610534667969 49.53628540039062 3 44 3 M 44 0 C 68.30054473876953 0 88 19.69947052001953 88 44 C 88 68.30054473876953 68.30054473876953 88 44 88 C 19.69947052001953 88 0 68.30054473876953 0 44 C 0 19.69947052001953 19.69947052001953 0 44 0 Z" stroke="none" fill="#1d7083"/>
                              </g>
                            </g>
                          </g>
                        </g>
                      </g>
                    </g>
                  </g>
                </g>
              </g>
            </g>
          </g>
        </g>
      </g>
    </g>
    <g id="evaluation_5261295" transform="translate(199.681 7872.164)">
      <g id="Grupo_1174689" data-name="Grupo 1174689" transform="translate(39.998 53.562)">
        <path id="Trazado_1034026" data-name="Trazado 1034026" d="M391.364,374.349a3.679,3.679,0,0,1-5.15,0l-6.692-6.692,5.15-5.15,6.692,6.691A3.642,3.642,0,0,1,391.364,374.349Z" transform="translate(-379.522 -362.507)" fill="#eab7a2"/>
      </g>
      <g id="Grupo_1174690" data-name="Grupo 1174690" transform="translate(20.017 33.505)">
        <circle id="Elipse_12278" data-name="Elipse 12278" cx="9.069" cy="9.069" r="9.069" transform="translate(0 12.824) rotate(-45)" fill="#bedaff"/>
      </g>
      <g id="Grupo_1174691" data-name="Grupo 1174691" transform="translate(37.355 50.914)">
        <path id="Trazado_1034027" data-name="Trazado 1034027" d="M357.759,337.38l3.561,3.561-3.3,3.3-3.578-3.578a9.142,9.142,0,0,0,3.32-3.287Z" transform="translate(-354.439 -337.38)" fill="#fff"/>
      </g>
      <g id="Grupo_1174692" data-name="Grupo 1174692" transform="translate(1.054 18.22)">
        <path id="Trazado_1034028" data-name="Trazado 1034028" d="M43.851,29.368a2.2,2.2,0,0,0-2.2-2.2H12.2a2.2,2.2,0,0,0-2.2,2.2v40.4a2.2,2.2,0,0,0,2.2,2.2H41.649a2.2,2.2,0,0,0,2.2-2.2V64.108a9.07,9.07,0,1,1,0-17.668V29.368Z" transform="translate(-10 -27.165)" fill="#fff"/>
      </g>
      <g id="Grupo_1174693" data-name="Grupo 1174693" transform="translate(6.728 25.75)">
        <path id="Trazado_1034029" data-name="Trazado 1034029" d="M63.84,98.612h5.911v5.911H63.84Z" transform="translate(-63.84 -98.612)" fill="#b7bcce"/>
      </g>
      <g id="Grupo_1174694" data-name="Grupo 1174694" transform="translate(6.728 37.668)">
        <path id="Trazado_1034030" data-name="Trazado 1034030" d="M63.84,211.7h5.911v5.911H63.84Z" transform="translate(-63.84 -211.701)" fill="#b7bcce"/>
      </g>
      <g id="Grupo_1174695" data-name="Grupo 1174695" transform="translate(6.728 49.587)">
        <path id="Trazado_1034031" data-name="Trazado 1034031" d="M63.84,324.791h5.911V330.7H63.84Z" transform="translate(-63.84 -324.791)" fill="#b7bcce"/>
      </g>
      <g id="Grupo_1174696" data-name="Grupo 1174696" transform="translate(0 17.166)">
        <path id="Trazado_1034032" data-name="Trazado 1034032" d="M52.585,59.508l-6.692-6.692a1.054,1.054,0,0,0-1.491,0l-.167.167-2.267-2.267A10.112,10.112,0,0,0,35.959,36.7V33.437a1.054,1.054,0,0,0-2.108,0v2.817a10.125,10.125,0,1,0,0,20.151v4.421A1.15,1.15,0,0,1,32.7,61.974H3.257a1.15,1.15,0,0,1-1.149-1.149v-40.4a1.15,1.15,0,0,1,1.149-1.149H32.7a1.15,1.15,0,0,1,1.149,1.149v3.735a1.054,1.054,0,1,0,2.108,0V20.423A3.26,3.26,0,0,0,32.7,17.166H3.257A3.26,3.26,0,0,0,0,20.423v40.4a3.26,3.26,0,0,0,3.256,3.256H32.7a3.26,3.26,0,0,0,3.256-3.256V55.958a10.054,10.054,0,0,0,1.195-.468l2.288,2.288-.189.189a1.067,1.067,0,0,0,0,1.491l6.692,6.691a4.7,4.7,0,0,0,6.641-6.64ZM39.556,50.717a8.016,8.016,0,1,1-1.04-10.056A8.07,8.07,0,0,1,39.556,50.717Zm-.548,3.646a10.26,10.26,0,0,0,1.821-1.8l1.917,1.917-1.813,1.813Zm12.087,10.3a2.613,2.613,0,0,1-3.66,0l-5.946-5.946,3.66-3.66L51.095,61A2.591,2.591,0,0,1,51.095,64.658Z" transform="translate(0 -17.166)"/>
        <path id="Trazado_1034033" data-name="Trazado 1034033" d="M61.859,89.665a1.054,1.054,0,0,0-1.054-1.054H54.894a1.054,1.054,0,0,0-1.054,1.054v5.911a1.054,1.054,0,0,0,1.054,1.054h5.911a1.054,1.054,0,0,0,1.054-1.054Zm-2.108,4.857h-3.8v-3.8h3.8Z" transform="translate(-48.166 -81.081)"/>
        <path id="Trazado_1034034" data-name="Trazado 1034034" d="M61.859,202.755a1.054,1.054,0,0,0-1.054-1.054H54.894a1.054,1.054,0,0,0-1.054,1.054v5.911a1.054,1.054,0,0,0,1.054,1.054h5.911a1.054,1.054,0,0,0,1.054-1.054Zm-2.108,4.857h-3.8v-3.8h3.8Z" transform="translate(-48.166 -182.253)"/>
        <path id="Trazado_1034035" data-name="Trazado 1034035" d="M60.805,314.79H54.894a1.054,1.054,0,0,0-1.054,1.054v5.911a1.054,1.054,0,0,0,1.054,1.054h5.911a1.054,1.054,0,0,0,1.054-1.054v-5.911A1.054,1.054,0,0,0,60.805,314.79ZM59.751,320.7h-3.8v-3.8h3.8Z" transform="translate(-48.166 -283.423)"/>
        <path id="Trazado_1034036" data-name="Trazado 1034036" d="M179.012,89.665a1.054,1.054,0,0,0-1.054-1.054H167.4a1.054,1.054,0,1,0,0,2.108h10.554A1.054,1.054,0,0,0,179.012,89.665Z" transform="translate(-148.818 -81.081)"/>
        <path id="Trazado_1034037" data-name="Trazado 1034037" d="M175.772,132.31a1.054,1.054,0,0,0-1.054-1.054H167.4a1.054,1.054,0,1,0,0,2.108h7.315A1.054,1.054,0,0,0,175.772,132.31Z" transform="translate(-148.818 -119.232)"/>
        <path id="Trazado_1034038" data-name="Trazado 1034038" d="M172.854,203.15A1.054,1.054,0,0,0,171.8,202.1h-4.4a1.054,1.054,0,1,0,0,2.108h4.4A1.054,1.054,0,0,0,172.854,203.15Z" transform="translate(-148.818 -182.606)"/>
        <path id="Trazado_1034039" data-name="Trazado 1034039" d="M168.416,244.74H167.4a1.054,1.054,0,1,0,0,2.108h1.012a1.054,1.054,0,0,0,0-2.108Z" transform="translate(-148.818 -220.756)"/>
        <path id="Trazado_1034040" data-name="Trazado 1034040" d="M167.4,316.9h1.012a1.054,1.054,0,1,0,0-2.108H167.4a1.054,1.054,0,1,0,0,2.108Z" transform="translate(-148.818 -283.423)"/>
        <path id="Trazado_1034041" data-name="Trazado 1034041" d="M167.4,359.542h4.4a1.054,1.054,0,0,0,0-2.108h-4.4a1.054,1.054,0,0,0,0,2.108Z" transform="translate(-148.818 -321.573)"/>
        <path id="Trazado_1034042" data-name="Trazado 1034042" d="M264.838,265.578a1.054,1.054,0,0,0-1.491,1.491l2.514,2.514a1.054,1.054,0,0,0,1.49,0l5.137-5.138A1.054,1.054,0,1,0,271,262.955l-4.392,4.392Z" transform="translate(-235.317 -236.775)"/>
        <path id="Trazado_1034043" data-name="Trazado 1034043" d="M323.244,118.329a1.053,1.053,0,1,0-.57,1.375,1.062,1.062,0,0,0,.57-1.375Z" transform="translate(-287.366 -107.087)"/>
      </g>
    </g>
  </g>
</svg>
